# xmcd
#
# Track frame offsets: 
#        150
#        16304
#        38278
#        58438
#        78322
#        101561
#        124150
#        145534
#        168309
#        184979
#        200317
#        210780
#        223714
#        243266
#        262749
#        284502
#        301961
#
# Disc length: 4274 seconds
#
# Revision: 0
# Processed by: cddbd v1.4PL0 Copyright (c) Steve Scherf et al.
# Submitted via: ExactAudioCopy v0.95a3
#
DISCID=e410b011
DTITLE=韩红 - 醒了
DYEAR=2002
DGENRE=A Cappella
TTITLE0=醒了
TTITLE1=斜当歌唱
TTITLE2=那片海
TTITLE3=你不会回来
TTITLE4=天空
TTITLE5=穿行
TTITLE6=那个冬季
TTITLE7=雪
TTITLE8=天亮了
TTITLE9=青藏高原
TTITLE10=让爱作主
TTITLE11=大哥
TTITLE12=雪域光芒
TTITLE13=风雨中的美丽
TTITLE14=喜玛拉雅
TTITLE15=家乡
TTITLE16=希望
EXTD=
EXTT0=
EXTT1=
EXTT2=
EXTT3=
EXTT4=
EXTT5=
EXTT6=
EXTT7=
EXTT8=
EXTT9=
EXTT10=
EXTT11=
EXTT12=
EXTT13=
EXTT14=
EXTT15=
EXTT16=
PLAYORDER=
